<svg width="300" height="51" viewBox="0 0 300 51" fill="none" xmlns="http://www.w3.org/2000/svg">
<path d="M29.1069 24.3193C29.0301 24.6074 28.8861 25.0203 28.6748 25.5581C28.4635 26.0959 28.2235 26.7104 27.9546 27.4019C27.6857 28.0741 27.388 28.7943 27.0615 29.5625C26.735 30.3115 26.4181 31.0509 26.1108 31.7808C25.9764 32.1073 25.8132 32.3473 25.6211 32.501C25.4482 32.6546 25.0833 32.741 24.5264 32.7603L16.1143 32.9043L15.0771 45.6953C15.0579 45.8682 15.0099 46.041 14.9331 46.2139C14.8563 46.3675 14.741 46.4924 14.5874 46.5884C14.5298 46.6268 14.2993 46.742 13.896 46.9341C13.5119 47.1069 13.0221 47.3182 12.4268 47.5679C11.8314 47.8175 11.1784 48.0864 10.4678 48.3745C9.75716 48.6626 9.05615 48.9219 8.36475 49.1523C7.67334 49.402 7.03955 49.6037 6.46338 49.7573C5.88721 49.9302 5.43587 50.0166 5.10938 50.0166C4.72526 50.0166 4.36995 49.9398 4.04346 49.7861C3.73617 49.6517 3.58252 49.3636 3.58252 48.9219C3.56331 47.9616 3.58252 46.9053 3.64014 45.7529C3.71696 44.5814 3.80339 43.4002 3.89941 42.2095C3.99544 40.9995 4.10107 39.8184 4.21631 38.666C4.33154 37.4945 4.42757 36.4285 4.50439 35.4683L4.70605 33.0483C3.09277 33.0483 1.94043 33.0099 1.24902 32.9331C0.557617 32.8371 0.211914 32.6066 0.211914 32.2417C0.211914 31.992 0.355957 31.6655 0.644043 31.2622C1.04736 30.7052 1.4987 30.033 1.99805 29.2456C2.5166 28.4582 3.00635 27.6899 3.46729 26.9409C3.94743 26.1919 4.36035 25.5293 4.70605 24.9531C5.07096 24.377 5.30143 24.0216 5.39746 23.8872L5.94482 15.9648C5.57992 15.9648 5.26302 15.9744 4.99414 15.9937C4.72526 15.9937 4.47559 16.0033 4.24512 16.0225C4.03385 16.0225 3.83219 16.0321 3.64014 16.0513C3.44808 16.0513 3.24642 16.0513 3.03516 16.0513C2.11328 16.0513 1.45068 16.0033 1.04736 15.9072C0.663249 15.792 0.471191 15.5903 0.471191 15.3022C0.471191 15.1678 0.586426 14.8893 0.816895 14.4668C1.04736 14.0443 1.32585 13.5641 1.65234 13.0264C1.99805 12.4694 2.36296 11.8932 2.74707 11.2979C3.15039 10.6833 3.5057 10.1167 3.81299 9.59814L5.5415 6.65967L18.6494 6.19873C20.3395 6.14111 22.02 6.0835 23.6909 6.02588C25.3618 5.94906 26.8983 5.88184 28.3003 5.82422C29.7215 5.7666 30.9411 5.71859 31.959 5.68018C32.9769 5.62256 33.6875 5.58415 34.0908 5.56494C34.11 5.56494 34.158 5.57454 34.2349 5.59375C34.3309 5.59375 34.4269 5.62256 34.5229 5.68018C34.619 5.71859 34.7054 5.79541 34.7822 5.91064C34.8783 6.02588 34.9263 6.18913 34.9263 6.40039C34.9263 6.51562 34.7918 6.89974 34.5229 7.55273C34.2541 8.20573 33.87 9.17562 33.3706 10.4624L32.103 13.8042C31.9686 14.1307 31.8149 14.3804 31.6421 14.5532C31.4692 14.7261 31.1043 14.8221 30.5474 14.8413C29.8944 14.8605 29.2318 14.8893 28.5596 14.9277C27.8874 14.9661 27.196 15.0046 26.4854 15.043L17.7275 15.4751C17.6123 16.2241 17.5259 16.7811 17.4683 17.146C17.4299 17.5109 17.401 17.8182 17.3818 18.0679C17.3818 18.2983 17.3818 18.5384 17.3818 18.7881C17.3818 19.0186 17.3722 19.3931 17.353 19.9116C17.3338 20.2765 17.305 20.5838 17.2666 20.8335C17.2474 21.0832 17.2186 21.3328 17.1802 21.5825C17.161 21.813 17.1322 22.0627 17.0938 22.3315C17.0745 22.6004 17.0553 22.9365 17.0361 23.3398C18.3037 23.3014 19.5425 23.263 20.7524 23.2246C21.9816 23.1862 23.1051 23.1478 24.123 23.1094C25.1602 23.071 26.0532 23.0422 26.8022 23.0229C27.5513 22.9845 28.0794 22.9653 28.3867 22.9653C28.5404 22.9653 28.7132 23.0229 28.9053 23.1382C29.0973 23.2534 29.1934 23.4743 29.1934 23.8008C29.1934 23.9544 29.1646 24.1273 29.1069 24.3193ZM35.0127 35.7852C35.2624 33.154 35.512 30.5516 35.7617 27.978C36.0114 25.4045 36.2323 22.7637 36.4243 20.0557C36.4627 19.4219 36.5203 18.9897 36.5972 18.7593C36.6932 18.5096 36.9141 18.3464 37.2598 18.2695C38.8923 17.943 40.6016 17.6069 42.3877 17.2612C44.1738 16.8963 45.9023 16.4354 47.5732 15.8784C47.6309 15.8592 47.7173 15.8496 47.8325 15.8496C48.0438 15.8496 48.1494 15.9264 48.1494 16.0801L45.5566 44.1396C45.499 44.7734 45.4318 45.2152 45.355 45.4648C45.2782 45.6953 45.0669 45.849 44.7212 45.9258C43.0887 46.4251 41.437 46.9821 39.7661 47.5967C38.0952 48.2113 36.3283 48.8354 34.4653 49.4692C34.4077 49.4884 34.3213 49.498 34.2061 49.498C33.9948 49.498 33.8892 49.402 33.8892 49.21C33.8892 49.1908 33.9084 48.9315 33.9468 48.4321C33.9852 47.9328 34.0332 47.2894 34.0908 46.502C34.1676 45.7145 34.2445 44.8311 34.3213 43.8516C34.3981 42.8721 34.4749 41.8926 34.5518 40.9131C34.6478 39.9336 34.7342 38.9925 34.811 38.0898C34.8879 37.1872 34.9551 36.4189 35.0127 35.7852ZM37.1733 12.7959C37.231 11.9701 37.2694 11.3363 37.2886 10.8945C37.327 10.4528 37.3558 10.1263 37.375 9.91504C37.3942 9.68457 37.4038 9.54053 37.4038 9.48291C37.4038 9.42529 37.4038 9.38688 37.4038 9.36768C37.423 9.32926 37.4326 9.27165 37.4326 9.19482C37.4518 9.0988 37.471 8.91634 37.4902 8.64746C37.5094 8.35938 37.5382 7.94645 37.5767 7.40869C37.6151 6.87093 37.6727 6.13151 37.7495 5.19043C37.7879 4.55664 37.8455 4.12451 37.9224 3.89404C38.0184 3.64437 38.2393 3.48112 38.585 3.4043C40.2174 3.0778 41.9268 2.7417 43.7129 2.396C45.499 2.03109 47.2275 1.57015 48.8984 1.01318C48.9561 0.993978 49.0425 0.984375 49.1577 0.984375C49.2153 1.09961 49.2922 1.17643 49.3882 1.21484L49.4746 1.27246L48.8408 9.16602C48.7832 9.7998 48.7064 10.2415 48.6104 10.4912C48.5335 10.7409 48.3319 10.8945 48.0054 10.9521C46.3729 11.2594 44.7212 11.5955 43.0503 11.9604C41.3794 12.3254 39.6125 12.6903 37.7495 13.0552C37.6919 13.0744 37.6055 13.084 37.4902 13.084C37.279 13.084 37.1733 12.988 37.1733 12.7959ZM75.8057 49.0371C75.5944 49.0947 75.3159 49.1812 74.9702 49.2964C74.6245 49.4308 74.2884 49.498 73.9619 49.498C73.693 49.498 73.453 49.4308 73.2417 49.2964C73.0496 49.1619 72.9536 48.9315 72.9536 48.605V48.4321C73.0688 47.395 73.1649 46.5212 73.2417 45.8105C73.3185 45.0807 73.3857 44.4277 73.4434 43.8516C73.5202 43.2562 73.5778 42.6704 73.6162 42.0942C73.6738 41.4989 73.741 40.8171 73.8179 40.0488C73.8947 39.2614 73.9811 38.3395 74.0771 37.2832C74.1924 36.2077 74.3268 34.8729 74.4805 33.2788C74.5765 32.2993 74.6629 31.3006 74.7397 30.2827C74.8166 29.2648 74.855 28.3237 74.855 27.4595C74.855 26.8833 74.807 26.3551 74.7109 25.875C74.6341 25.3757 74.4805 24.9531 74.25 24.6074C74.0387 24.2425 73.741 23.964 73.3569 23.772C72.9728 23.5799 72.4831 23.4839 71.8877 23.4839C71.446 23.4839 70.8314 23.5799 70.0439 23.772C69.2757 23.964 68.5075 24.2809 67.7393 24.7227C66.971 25.1644 66.2892 25.7502 65.6938 26.48C65.0985 27.1906 64.7624 28.0741 64.6855 29.1304C64.5703 30.5516 64.4647 31.7712 64.3687 32.7891C64.2726 33.7878 64.1862 34.6424 64.1094 35.353C64.0326 36.0444 63.9653 36.611 63.9077 37.0527C63.8693 37.4945 63.8405 37.869 63.8213 38.1763C63.8021 38.2531 63.7733 38.4644 63.7349 38.8101C63.6965 39.1558 63.6484 39.5687 63.5908 40.0488C63.5524 40.529 63.5044 41.0379 63.4468 41.5757C63.4084 42.1134 63.3604 42.6224 63.3027 43.1025C63.2643 43.5827 63.2259 43.9956 63.1875 44.3413C63.1683 44.687 63.1587 44.8983 63.1587 44.9751C63.1587 45.1287 63.1587 45.2632 63.1587 45.3784C63.1779 45.4744 63.1875 45.5705 63.1875 45.6665C63.1875 45.8201 63.1107 45.9546 62.957 46.0698C62.8226 46.1659 62.5057 46.2811 62.0063 46.4155L54.3721 49.0371C54.1608 49.1139 53.8823 49.21 53.5366 49.3252C53.1909 49.4404 52.8548 49.498 52.5283 49.498C52.2594 49.498 52.0194 49.4308 51.8081 49.2964C51.616 49.1619 51.52 48.9315 51.52 48.605L54.1416 19.1626C54.1992 18.5288 54.2664 18.0967 54.3433 17.8662C54.4393 17.6165 54.6602 17.4533 55.0059 17.3765C56.7536 17.0308 58.5493 16.6851 60.3931 16.3394C62.2368 15.9744 64.0326 15.5135 65.7803 14.9565C65.9339 14.9565 66.0203 14.9854 66.0396 15.043C66.078 15.0814 66.0972 15.1486 66.0972 15.2446C66.0972 15.283 66.0876 15.3407 66.0684 15.4175C66.0684 15.4943 66.0396 15.6672 65.9819 15.936C65.9435 16.2049 65.8763 16.6178 65.7803 17.1748C65.7035 17.7126 65.5882 18.4712 65.4346 19.4507C66.7598 18.6825 67.9985 18.0679 69.1509 17.6069C70.3224 17.1268 71.4172 16.7619 72.4351 16.5122C73.4722 16.2433 74.4421 16.0705 75.3447 15.9937C76.2474 15.8976 77.0924 15.8496 77.8799 15.8496C80.5879 15.8496 82.5565 16.6755 83.7856 18.3271C85.0148 19.9596 85.6294 22.418 85.6294 25.7021C85.6294 26.1631 85.6198 26.6432 85.6006 27.1426C85.5814 27.6227 85.543 28.1221 85.4854 28.6406L84.1602 41.0283C84.0641 41.835 84.0065 42.584 83.9873 43.2754C83.9681 43.9476 83.9585 44.735 83.9585 45.6377C83.9585 45.7913 83.9585 45.9258 83.9585 46.041C83.9777 46.137 83.9873 46.2235 83.9873 46.3003C83.9873 46.4731 83.9105 46.6076 83.7568 46.7036C83.6224 46.7996 83.3055 46.9245 82.8062 47.0781L75.8057 49.0371ZM111.788 31.6079C111.845 30.9933 111.903 30.3499 111.96 29.6777C112.037 29.0055 112.124 28.3045 112.22 27.5747C111.778 26.4224 111.154 25.4909 110.347 24.7803C109.541 24.0505 108.532 23.6855 107.322 23.6855C106.132 23.6855 105.123 24.0312 104.297 24.7227C103.472 25.3949 102.809 26.2303 102.31 27.229C101.81 28.2277 101.445 29.284 101.215 30.3979C101.004 31.4927 100.898 32.4626 100.898 33.3076C100.898 34.3447 100.956 35.3722 101.071 36.3901C101.205 37.408 101.407 38.3299 101.676 39.1558C101.964 39.9816 102.338 40.6538 102.799 41.1724C103.26 41.6717 103.836 41.9214 104.528 41.9214C106.218 41.8638 107.591 41.4797 108.647 40.769C109.704 40.0584 110.549 39.1942 111.183 38.1763L111.788 31.6079ZM121.842 45.0903C121.842 45.1287 121.832 45.1768 121.813 45.2344C121.813 45.2728 121.813 45.3112 121.813 45.3496C121.813 45.4456 121.813 45.5225 121.813 45.5801C121.832 45.6377 121.842 45.6953 121.842 45.7529C121.842 45.9258 121.775 46.0698 121.64 46.1851C121.525 46.2811 121.208 46.3963 120.689 46.5308L112.969 49.0371C112.757 49.1139 112.479 49.21 112.133 49.3252C111.788 49.4404 111.451 49.498 111.125 49.498C110.856 49.498 110.616 49.4308 110.405 49.2964C110.213 49.1619 110.117 48.9123 110.117 48.5474C110.117 48.2017 110.117 47.9232 110.117 47.7119C110.136 47.5007 110.146 47.3086 110.146 47.1357C110.165 46.9437 110.184 46.742 110.203 46.5308C110.242 46.3195 110.28 46.041 110.318 45.6953C108.878 46.8477 107.389 47.7695 105.853 48.4609C104.336 49.1523 102.732 49.498 101.042 49.498C99.1982 49.498 97.5562 49.0563 96.1157 48.1729C94.6945 47.3086 93.4941 46.1466 92.5146 44.687C91.5352 43.2082 90.7861 41.5277 90.2676 39.6455C89.7682 37.7441 89.5186 35.766 89.5186 33.7109C89.5186 31.0413 89.9507 28.6118 90.8149 26.4224C91.6984 24.2137 92.8892 22.3315 94.3872 20.7759C95.8853 19.201 97.633 17.991 99.6304 17.146C101.628 16.2817 103.75 15.8496 105.997 15.8496C107.207 15.8496 108.359 16.1665 109.454 16.8003C110.568 17.4341 111.615 18.2503 112.594 19.249C112.652 18.3079 112.719 17.29 112.796 16.1953C112.873 15.0814 112.95 13.9578 113.026 12.8247C113.103 11.6724 113.18 10.5392 113.257 9.42529C113.334 8.31136 113.401 7.29346 113.458 6.37158C113.458 6.19873 113.516 6.06429 113.631 5.96826C113.766 5.85303 114.092 5.72819 114.611 5.59375L122.706 3.66357C122.917 3.62516 123.196 3.53874 123.542 3.4043C123.887 3.26986 124.223 3.20264 124.55 3.20264C124.799 3.20264 125.03 3.26025 125.241 3.37549C125.472 3.49072 125.587 3.71159 125.587 4.03809C125.587 4.0765 125.577 4.16292 125.558 4.29736C125.558 4.4126 125.558 4.48942 125.558 4.52783L121.842 45.0903ZM145.465 15.8496C147.289 15.8496 148.941 16.1953 150.42 16.8867C151.918 17.5589 153.195 18.4424 154.251 19.5371C155.327 20.6126 156.153 21.8226 156.729 23.167C157.305 24.5114 157.593 25.8558 157.593 27.2002C157.593 28.391 157.228 29.5913 156.499 30.8013C155.769 31.992 154.741 33.0675 153.416 34.0278C152.11 34.9881 150.535 35.766 148.691 36.3613C146.848 36.9567 144.821 37.2544 142.613 37.2544C141.46 37.2544 140.25 37.1392 138.983 36.9087C139.06 37.7345 139.3 38.4451 139.703 39.0405C140.106 39.6359 140.615 40.1257 141.23 40.5098C141.845 40.8939 142.536 41.182 143.304 41.374C144.092 41.5469 144.898 41.6333 145.724 41.6333C146.646 41.6333 147.529 41.5565 148.375 41.4028C149.239 41.23 150.065 41.0091 150.852 40.7402C151.639 40.4714 152.398 40.1737 153.128 39.8472C153.858 39.5207 154.549 39.1942 155.202 38.8677C155.375 38.8293 155.519 38.8005 155.634 38.7812C155.769 38.7428 155.894 38.7236 156.009 38.7236C156.009 38.7236 155.999 38.8773 155.98 39.1846C155.98 39.4919 155.98 39.924 155.98 40.481C155.98 41.0379 155.97 41.7101 155.951 42.4976C155.951 43.285 155.942 44.1589 155.922 45.1191C155.98 45.2152 156.018 45.3112 156.038 45.4072C156.057 45.5033 156.066 45.5801 156.066 45.6377C156.066 45.8682 155.855 46.1178 155.433 46.3867C155.01 46.6556 154.453 46.9341 153.762 47.2222C153.09 47.5103 152.312 47.7887 151.428 48.0576C150.564 48.3265 149.681 48.5666 148.778 48.7778C147.875 49.0083 147.001 49.1812 146.156 49.2964C145.311 49.4308 144.572 49.498 143.938 49.498C141.864 49.498 139.847 49.1331 137.888 48.4033C135.948 47.6927 134.22 46.6652 132.703 45.3208C131.205 43.9764 130.004 42.3439 129.102 40.4233C128.199 38.5028 127.748 36.3421 127.748 33.9414C127.748 31.4255 128.18 29.0728 129.044 26.8833C129.908 24.6746 131.118 22.7541 132.674 21.1216C134.249 19.4891 136.121 18.2023 138.292 17.2612C140.462 16.3201 142.853 15.8496 145.465 15.8496ZM145.119 23.5127C144.332 23.5127 143.602 23.6855 142.93 24.0312C142.277 24.3577 141.672 24.8379 141.115 25.4717C140.577 26.0863 140.106 26.8353 139.703 27.7188C139.3 28.583 138.973 29.5433 138.724 30.5996C140.702 30.2539 142.344 29.889 143.65 29.5049C144.956 29.1208 146.003 28.7367 146.79 28.3525C147.577 27.9492 148.134 27.5555 148.461 27.1714C148.787 26.7681 148.951 26.384 148.951 26.019C148.951 25.6733 148.816 25.3468 148.547 25.0396C148.298 24.7323 147.981 24.4634 147.597 24.2329C147.213 24.0024 146.79 23.8296 146.329 23.7144C145.887 23.5799 145.484 23.5127 145.119 23.5127ZM184.76 24.5498C184.356 24.5114 183.905 24.473 183.406 24.4346C182.906 24.377 182.378 24.3481 181.821 24.3481C180.976 24.3481 180.112 24.425 179.229 24.5786C178.364 24.7131 177.558 24.9915 176.809 25.4141C176.06 25.8366 175.416 26.4224 174.878 27.1714C174.341 27.9012 173.995 28.8519 173.841 30.0234C173.707 31.4447 173.592 32.6162 173.496 33.5381C173.419 34.4408 173.361 35.1898 173.323 35.7852C173.284 36.3613 173.246 36.8319 173.208 37.1968C173.188 37.5425 173.169 37.869 173.15 38.1763C173.15 38.2531 173.131 38.4644 173.092 38.8101C173.073 39.1558 173.035 39.5591 172.977 40.02C172.919 40.481 172.862 40.9803 172.804 41.5181C172.766 42.0558 172.718 42.5552 172.66 43.0161C172.603 43.4771 172.555 43.8804 172.516 44.2261C172.497 44.5718 172.487 44.783 172.487 44.8599C172.487 45.0135 172.487 45.1479 172.487 45.2632C172.507 45.3592 172.516 45.4552 172.516 45.5513C172.516 45.7049 172.439 45.8394 172.286 45.9546C172.151 46.0506 171.834 46.1659 171.335 46.3003L163.701 49.0371C163.489 49.1139 163.211 49.21 162.865 49.3252C162.52 49.4404 162.183 49.498 161.857 49.498C161.588 49.498 161.348 49.4308 161.137 49.2964C160.945 49.1619 160.849 48.9315 160.849 48.605L163.326 20.0557C163.384 19.4219 163.451 18.9897 163.528 18.7593C163.624 18.5096 163.845 18.3464 164.19 18.2695C165.938 17.9238 167.743 17.5781 169.606 17.2324C171.469 16.8675 173.275 16.4066 175.022 15.8496C175.176 15.8496 175.263 15.8784 175.282 15.936C175.32 15.9744 175.339 16.0417 175.339 16.1377C175.339 16.1761 175.33 16.2337 175.311 16.3105C175.311 16.3874 175.282 16.5602 175.224 16.8291C175.186 17.098 175.118 17.5109 175.022 18.0679C174.946 18.6056 174.83 19.3643 174.677 20.3438C175.56 19.6523 176.53 19.0186 177.586 18.4424C178.662 17.8662 179.737 17.3765 180.813 16.9731C181.889 16.5506 182.926 16.2241 183.924 15.9937C184.923 15.744 185.797 15.6191 186.546 15.6191L184.76 24.5498ZM213.021 10.0591C213.021 9.36768 213.079 8.89714 213.194 8.64746C213.328 8.37858 213.588 8.19613 213.972 8.1001L223.882 5.70898C224.132 5.63216 224.391 5.59375 224.66 5.59375C224.929 5.59375 225.111 5.68018 225.207 5.85303C225.303 6.00667 225.351 6.33317 225.351 6.83252L225.005 11.3555C224.909 12.6807 224.804 13.9963 224.688 15.3022C224.573 16.6082 224.4 17.751 224.17 18.7305L223.651 22.8213C223.498 24.0312 223.354 25.3468 223.219 26.7681C223.085 28.1701 222.941 29.745 222.787 31.4927L221.433 45.6953C221.414 45.8682 221.375 46.041 221.318 46.2139C221.26 46.3867 221.135 46.5116 220.943 46.5884C220.809 46.646 220.492 46.7708 219.993 46.9629C219.513 47.1549 218.936 47.3758 218.264 47.6255C217.592 47.8752 216.872 48.1344 216.104 48.4033C215.335 48.6914 214.605 48.9507 213.914 49.1812C213.223 49.4116 212.608 49.6037 212.07 49.7573C211.533 49.911 211.168 49.9878 210.976 49.9878C210.707 49.9878 210.467 49.911 210.255 49.7573C210.063 49.6229 209.967 49.354 209.967 48.9507C209.967 46.6268 210.102 44.2549 210.371 41.835C210.639 39.3958 210.88 36.9759 211.091 34.5752C211.129 34.3063 211.139 34.0566 211.12 33.8262C211.12 33.5957 211.139 33.346 211.177 33.0771H200.633L199.452 45.6953C199.433 45.8682 199.395 46.041 199.337 46.2139C199.299 46.3675 199.174 46.4924 198.962 46.5884C198.886 46.6268 198.501 46.7708 197.81 47.0205C197.138 47.251 196.35 47.5295 195.448 47.856C194.564 48.1632 193.681 48.4705 192.797 48.7778C191.933 49.1043 191.271 49.354 190.81 49.5269C190.579 49.6229 190.291 49.7189 189.945 49.8149C189.619 49.9302 189.292 49.9878 188.966 49.9878C188.697 49.9878 188.457 49.911 188.246 49.7573C188.054 49.6037 187.958 49.3252 187.958 48.9219C187.958 48 187.986 46.9533 188.044 45.7817C188.121 44.591 188.207 43.3522 188.303 42.0654C188.399 40.7594 188.514 39.4246 188.649 38.061C188.783 36.6974 188.918 35.353 189.052 34.0278L189.11 33.1924C187.554 33.1924 186.421 33.154 185.71 33.0771C185.019 32.9811 184.673 32.7507 184.673 32.3857C184.673 32.1361 184.817 31.8096 185.105 31.4062C185.49 30.8685 185.931 30.2251 186.431 29.4761C186.949 28.7078 187.439 27.9588 187.9 27.229C188.38 26.48 188.803 25.8174 189.167 25.2412C189.552 24.6458 189.801 24.2617 189.917 24.0889L190.579 17.146C190.579 17.1076 190.598 16.8195 190.637 16.2817C190.675 15.744 190.723 15.1102 190.781 14.3804C190.838 13.6313 190.896 12.8631 190.954 12.0757C191.03 11.2882 191.098 10.616 191.155 10.0591C191.194 9.38688 191.242 8.91634 191.299 8.64746C191.376 8.37858 191.607 8.19613 191.991 8.1001L201.786 5.70898C202.035 5.63216 202.295 5.59375 202.563 5.59375C202.832 5.59375 203.015 5.68018 203.111 5.85303C203.207 6.00667 203.255 6.33317 203.255 6.83252C203.12 8.21533 203.015 9.47331 202.938 10.6064C202.861 11.7396 202.775 12.7959 202.679 13.7754C202.602 14.7549 202.515 15.6864 202.419 16.5698C202.323 17.4533 202.189 18.356 202.016 19.2778L201.44 23.7432L211.897 23.6279C212.07 21.0736 212.262 18.9033 212.474 17.1172C212.685 15.3311 212.819 13.9194 212.877 12.8823C212.935 11.9028 212.973 11.2018 212.992 10.7793C213.011 10.3568 213.021 10.1167 213.021 10.0591ZM258.596 44.4277C258.539 45.0615 258.462 45.5033 258.366 45.7529C258.27 45.9834 258.058 46.137 257.732 46.2139C256.099 46.6748 254.39 47.1453 252.604 47.6255C250.837 48.0864 249.118 48.701 247.447 49.4692C247.39 49.4884 247.303 49.498 247.188 49.498C247.034 49.498 246.938 49.4596 246.9 49.3828C246.881 49.306 246.871 49.2196 246.871 49.1235C246.871 49.0851 246.871 49.0179 246.871 48.9219C246.89 48.8258 246.919 48.6434 246.958 48.3745C246.996 48.1248 247.044 47.7695 247.102 47.3086C247.178 46.8477 247.274 46.2331 247.39 45.4648C245.239 46.8669 243.328 47.8848 241.657 48.5186C240.005 49.1715 238.536 49.498 237.249 49.498C234.042 49.498 231.699 48.7298 230.22 47.1934C228.76 45.6377 228.03 43.3234 228.03 40.2505C228.03 39.6935 228.04 39.127 228.059 38.5508C228.078 37.9554 228.136 37.3504 228.232 36.7358C228.443 34.4696 228.626 32.5298 228.779 30.9165C228.933 29.284 229.058 27.9012 229.154 26.7681C229.25 25.6349 229.327 24.7131 229.384 24.0024C229.461 23.2726 229.519 22.6676 229.557 22.1875C229.615 21.7074 229.653 21.3136 229.672 21.0063C229.711 20.6799 229.749 20.363 229.788 20.0557C229.864 19.4411 229.932 19.009 229.989 18.7593C230.066 18.5096 230.287 18.3464 230.652 18.2695C231.555 18.0967 232.409 17.943 233.216 17.8086C234.042 17.6549 234.848 17.5013 235.636 17.3477C236.442 17.1748 237.259 16.9924 238.084 16.8003C238.91 16.6082 239.784 16.3778 240.706 16.1089C240.744 16.1089 240.783 16.1089 240.821 16.1089C240.86 16.0897 240.898 16.0801 240.937 16.0801C241.167 16.0801 241.282 16.1569 241.282 16.3105V16.3682C241.205 17.0212 241.138 17.6357 241.081 18.2119C241.023 18.7881 240.965 19.3835 240.908 19.998C240.85 20.5934 240.783 21.2368 240.706 21.9282C240.648 22.6196 240.572 23.4263 240.476 24.3481C240.38 25.2508 240.264 26.2975 240.13 27.4883C239.995 28.679 239.832 30.0618 239.64 31.6367C239.525 32.7891 239.41 33.9414 239.294 35.0938C239.179 36.2269 239.122 37.2832 239.122 38.2627C239.122 38.8005 239.16 39.2998 239.237 39.7607C239.314 40.2025 239.448 40.5866 239.64 40.9131C239.851 41.2204 240.12 41.4604 240.447 41.6333C240.773 41.8062 241.196 41.8926 241.714 41.8926C242.118 41.8926 242.665 41.8062 243.356 41.6333C244.048 41.4412 244.739 41.1243 245.431 40.6826C246.122 40.2217 246.727 39.6263 247.246 38.8965C247.783 38.1475 248.091 37.2064 248.167 36.0732C248.302 34.1719 248.417 32.5874 248.513 31.3198C248.628 30.033 248.724 28.9575 248.801 28.0933C248.878 27.2098 248.945 26.4704 249.003 25.875C249.061 25.2796 249.109 24.7131 249.147 24.1753C249.205 23.6183 249.253 23.0326 249.291 22.418C249.329 21.7842 249.368 20.9967 249.406 20.0557C249.464 19.4219 249.531 18.9897 249.608 18.7593C249.704 18.5096 249.925 18.3464 250.271 18.2695C252.018 17.9238 253.804 17.5781 255.629 17.2324C257.453 16.8675 259.24 16.4066 260.987 15.8496C261.141 15.8496 261.227 15.8784 261.247 15.936C261.285 15.9744 261.304 16.0417 261.304 16.1377L258.596 44.4277ZM277.178 38.6084C277.37 38.9925 277.639 39.3862 277.984 39.7896C278.349 40.1737 278.762 40.529 279.223 40.8555C279.703 41.182 280.222 41.4508 280.779 41.6621C281.336 41.8542 281.912 41.9502 282.507 41.9502C283.333 41.9502 284.111 41.6333 284.841 40.9995C285.571 40.3465 286.204 39.4823 286.742 38.4067C287.299 37.312 287.731 36.0732 288.039 34.6904C288.346 33.2884 288.5 31.8384 288.5 30.3403C288.5 29.4185 288.413 28.5446 288.24 27.7188C288.087 26.8929 287.837 26.1727 287.491 25.5581C287.146 24.9435 286.694 24.4538 286.137 24.0889C285.599 23.724 284.946 23.5415 284.178 23.5415C282.93 23.5415 281.787 23.9064 280.75 24.6362C279.713 25.366 278.839 26.2975 278.128 27.4307L277.178 38.6084ZM266.461 49.4116C266.192 49.4692 265.981 49.498 265.827 49.498C265.213 49.498 264.905 49.1331 264.905 48.4033C264.905 48.3073 264.905 48.2113 264.905 48.1152C264.924 48.0192 264.944 47.9136 264.963 47.7983L268.305 7.03418C268.305 6.97656 268.305 6.91895 268.305 6.86133C268.324 6.80371 268.333 6.7557 268.333 6.71729C268.333 6.64046 268.324 6.57324 268.305 6.51562C268.305 6.45801 268.305 6.40999 268.305 6.37158C268.305 6.19873 268.362 6.06429 268.478 5.96826C268.612 5.85303 268.938 5.72819 269.457 5.59375L277.552 3.66357C277.764 3.62516 278.042 3.53874 278.388 3.4043C278.733 3.26986 279.069 3.20264 279.396 3.20264C279.646 3.20264 279.876 3.26025 280.087 3.37549C280.318 3.49072 280.433 3.71159 280.433 4.03809C280.433 4.0765 280.424 4.11491 280.404 4.15332C280.404 4.19173 280.404 4.23014 280.404 4.26855C280.385 4.36458 280.337 4.78711 280.26 5.53613C280.183 6.28516 280.097 7.19743 280.001 8.27295C279.905 9.32926 279.799 10.472 279.684 11.7012C279.569 12.9111 279.463 14.0539 279.367 15.1294C279.271 16.1857 279.185 17.0884 279.108 17.8374C279.031 18.5864 278.983 19.009 278.964 19.105C280.366 18.1831 281.816 17.4149 283.314 16.8003C284.812 16.1665 286.31 15.8496 287.808 15.8496C289.786 15.8496 291.496 16.2625 292.936 17.0884C294.376 17.895 295.567 18.9801 296.508 20.3438C297.449 21.6882 298.141 23.2438 298.583 25.0107C299.043 26.7777 299.274 28.6022 299.274 30.4844C299.274 32.0016 299.13 33.5285 298.842 35.0649C298.573 36.5822 298.17 38.0418 297.632 39.4438C297.113 40.8459 296.451 42.1615 295.644 43.3906C294.857 44.6198 293.944 45.6857 292.907 46.5884C291.889 47.491 290.747 48.2017 289.479 48.7202C288.211 49.2388 286.838 49.498 285.359 49.498C283.573 49.498 281.941 49.1043 280.462 48.3169C278.983 47.5295 277.61 46.5116 276.342 45.2632C276.304 45.7241 276.275 46.089 276.256 46.3579C276.237 46.6268 276.169 46.8381 276.054 46.9917C275.958 47.1261 275.805 47.2414 275.593 47.3374C275.382 47.4142 275.065 47.5007 274.643 47.5967C274.431 47.6543 274.057 47.7503 273.519 47.8848C273 48 272.367 48.1344 271.618 48.2881C270.888 48.4609 270.072 48.6434 269.169 48.8354C268.285 49.0275 267.383 49.2196 266.461 49.4116Z" fill="url(#paint0_linear)"/>
<defs>
<linearGradient id="paint0_linear" x1="129.475" y1="133.444" x2="134.008" y2="-16.9206" gradientUnits="userSpaceOnUse">
<stop stop-color="#161B33"/>
<stop offset="1" stop-color="#0DB14B"/>
</linearGradient>
</defs>
</svg>
