<svg width="27" height="26" viewBox="0 0 27 26" fill="none" xmlns="http://www.w3.org/2000/svg">
<path d="M11.1621 1.91992L12.4629 0.619141C13.0137 0.0683594 13.9043 0.0683594 14.4492 0.619141L25.8398 12.0039C26.3906 12.5547 26.3906 13.4453 25.8398 13.9902L14.4492 25.3809C13.8984 25.9316 13.0078 25.9316 12.4629 25.3809L11.1621 24.0801C10.6055 23.5234 10.6172 22.6152 11.1855 22.0703L18.2461 15.3437H1.40625C0.626953 15.3437 0 14.7168 0 13.9375V12.0625C0 11.2832 0.626953 10.6562 1.40625 10.6562H18.2461L11.1855 3.92969C10.6113 3.38477 10.5996 2.47656 11.1621 1.91992Z" fill="white"/>
</svg>
