<svg width="27" height="26" viewBox="0 0 27 26" fill="none" xmlns="http://www.w3.org/2000/svg">
<path d="M15.0908 23.874L13.79 25.1748C13.2393 25.7256 12.3486 25.7256 11.8037 25.1748L0.413086 13.79C-0.137695 13.2393 -0.137695 12.3486 0.413086 11.8037L11.8037 0.413088C12.3545 -0.137693 13.2451 -0.137693 13.79 0.413088L15.0908 1.71387C15.6475 2.27051 15.6357 3.17871 15.0674 3.72363L8.00684 10.4502L24.8467 10.4502C25.626 10.4502 26.2529 11.0771 26.2529 11.8564V13.7314C26.2529 14.5107 25.626 15.1377 24.8467 15.1377L8.00684 15.1377L15.0674 21.8643C15.6416 22.4092 15.6533 23.3174 15.0908 23.874Z" fill="white"/>
</svg>
