<svg width="14" height="18" viewBox="0 0 14 18" fill="none" xmlns="http://www.w3.org/2000/svg">
<path d="M13.5 5.0625C13.5 3.50859 12.2414 2.25 10.6875 2.25C9.13359 2.25 7.875 3.50859 7.875 5.0625C7.875 6.34219 8.7293 7.42148 9.89648 7.7625C9.87539 8.32852 9.74883 8.76445 9.50977 9.05977C8.96836 9.73477 7.77656 9.84727 6.51445 9.96328C5.52305 10.0547 4.49648 10.1531 3.65625 10.5574V5.49492C4.79883 5.13633 5.625 4.07109 5.625 2.8125C5.625 1.25859 4.36641 0 2.8125 0C1.25859 0 0 1.25859 0 2.8125C0 4.07109 0.826172 5.13633 1.96875 5.49492V12.5016C0.826172 12.8637 0 13.9289 0 15.1875C0 16.7414 1.25859 18 2.8125 18C4.36641 18 5.625 16.7414 5.625 15.1875C5.625 13.9922 4.87969 12.9691 3.825 12.5648C3.93398 12.382 4.09922 12.2203 4.34883 12.0938C4.91836 11.8055 5.76914 11.7281 6.67266 11.6438C8.15625 11.5066 9.83672 11.3484 10.8281 10.118C11.3203 9.50625 11.5699 8.71875 11.5875 7.73086C12.6984 7.35117 13.5 6.3 13.5 5.0625ZM2.8125 2.25C3.12188 2.25 3.375 2.50312 3.375 2.8125C3.375 3.12188 3.12188 3.375 2.8125 3.375C2.50312 3.375 2.25 3.12188 2.25 2.8125C2.25 2.50312 2.50312 2.25 2.8125 2.25ZM2.8125 15.75C2.50312 15.75 2.25 15.4969 2.25 15.1875C2.25 14.8781 2.50312 14.625 2.8125 14.625C3.12188 14.625 3.375 14.8781 3.375 15.1875C3.375 15.4969 3.12188 15.75 2.8125 15.75ZM10.6875 4.5C10.9969 4.5 11.25 4.75312 11.25 5.0625C11.25 5.37188 10.9969 5.625 10.6875 5.625C10.3781 5.625 10.125 5.37188 10.125 5.0625C10.125 4.75312 10.3781 4.5 10.6875 4.5Z" fill="white"/>
</svg>
