<svg width="21" height="14" viewBox="0 0 21 14" fill="none" xmlns="http://www.w3.org/2000/svg">
<path d="M10.1251 3.0625C9.75249 3.06832 9.38264 3.12752 9.02682 3.23828C9.19141 3.52773 9.27904 3.85454 9.28135 4.1875C9.28135 4.44604 9.23043 4.70205 9.13149 4.94091C9.03255 5.17977 8.88753 5.3968 8.70472 5.57962C8.5219 5.76243 8.30487 5.90745 8.06601 6.00639C7.82715 6.10533 7.57114 6.15625 7.3126 6.15625C6.97964 6.15394 6.65283 6.06631 6.36338 5.90172C6.13502 6.69372 6.16164 7.53749 6.43946 8.31352C6.71729 9.08955 7.23224 9.7585 7.91137 10.2256C8.59051 10.6927 9.39939 10.9343 10.2235 10.9161C11.0475 10.898 11.845 10.621 12.5029 10.1244C13.1608 9.62788 13.6458 8.93691 13.8892 8.14939C14.1325 7.36188 14.122 6.51775 13.8589 5.73658C13.5959 4.95541 13.0938 4.27679 12.4236 3.79686C11.7535 3.31693 10.9494 3.06001 10.1251 3.0625V3.0625ZM20.1278 6.48672C18.2212 2.76684 14.4469 0.25 10.1251 0.25C5.80334 0.25 2.02792 2.76859 0.122447 6.48707C0.0420238 6.64616 0.00012207 6.82192 0.00012207 7.00018C0.00012207 7.17843 0.0420238 7.3542 0.122447 7.51328C2.02897 11.2332 5.80334 13.75 10.1251 13.75C14.4469 13.75 18.2223 11.2314 20.1278 7.51293C20.2082 7.35384 20.2501 7.17808 20.2501 6.99982C20.2501 6.82157 20.2082 6.6458 20.1278 6.48672V6.48672ZM10.1251 12.0625C6.65694 12.0625 3.47741 10.1289 1.76038 7C3.47741 3.87109 6.65659 1.9375 10.1251 1.9375C13.5936 1.9375 16.7728 3.87109 18.4898 7C16.7731 10.1289 13.5936 12.0625 10.1251 12.0625Z" fill="white"/>
</svg>
