<svg width="20" height="18" viewBox="0 0 20 18" fill="none" xmlns="http://www.w3.org/2000/svg">
<g clip-path="url(#clip0)">
<path d="M7.0701 5.73655L6.80913 5.77507L1.73621 6.5239L1.73584 6.52395C1.24348 6.59625 1.02738 7.22573 1.39964 7.59272L1.39978 7.59286L5.06992 11.214L5.25527 11.3968L5.2117 11.6535L4.34371 16.7684C4.25483 17.2944 4.79627 17.6597 5.22533 17.4293L5.2269 17.4285L9.7651 15.0133L10 14.8882L10.2349 15.0133L14.7731 17.4285L14.7732 17.4285C15.2056 17.6588 15.7444 17.2914 15.6564 16.7688L7.0701 5.73655ZM7.0701 5.73655L7.18562 5.49939M7.0701 5.73655L7.18562 5.49939M7.18562 5.49939L9.45289 0.844886L7.18562 5.49939ZM14.7883 11.6535L15.6563 16.7684L10.5475 0.845617L12.8144 5.49939L12.9299 5.73655L13.1909 5.77507L18.2638 6.5239L18.2642 6.52395C18.7565 6.59625 18.9726 7.22573 18.6004 7.59272L18.6002 7.59286L14.9301 11.214L14.7447 11.3968L14.7883 11.6535Z" stroke="white"/>
</g>
<defs>
<clipPath id="clip0">
<rect width="20" height="18" fill="white"/>
</clipPath>
</defs>
</svg>
